<?xml version="1.0" encoding="UTF-8"?>
<svg id="Capa_1" data-name="Capa 1" xmlns="http://www.w3.org/2000/svg" version="1.1" viewBox="0 0 750 750">
  <defs>
    <style>
      .cls-1 {
        fill: #000;
      }

      .cls-1, .cls-2 {
        stroke-width: 0px;
      }

      .cls-2 {
        fill: #fff;
      }
    </style>
  </defs>
  <g>
    <g>
      <path class="cls-2" d="M162.24,556.85h22.13c0,3.15,2.78,5.03,10.88,5.1,6.75.15,9.3-1.43,9.3-3,0-.45.52-2.55-4.73-3.15l-8.33-1.28c-11.93-1.8-27.91-2.1-27.91-19.8,0-12.83,10.2-20.85,31.81-20.85,19.2,0,32.56,4.5,31.88,24.08h-21.98c-.6-3.15-3.53-5.03-10.43-5.03-5.85,0-7.58,1.58-7.58,3.08,0,.45-.15,2.48,3.53,2.93l6.6,1.05c12.83,2.1,31.66,1.35,31.66,20.03,0,14.55-10.95,21.23-33.83,21.08-23.48-.07-33.83-6.83-33.01-24.23Z"/>
      <path class="cls-2" d="M231.18,547.47c0-20.48,14.03-33.61,36.46-33.61s36.38,13.13,36.38,33.61-14.03,33.61-36.38,33.61-36.46-13.2-36.46-33.61ZM279.56,547.47c0-8.4-5.7-12.38-11.93-12.38s-11.93,3.98-11.93,12.38,5.63,12.38,11.93,12.38,11.93-4.05,11.93-12.38Z"/>
      <path class="cls-2" d="M307.24,547.47c0-20.48,14.25-33.61,36.01-33.61,16.43,0,33.23,7.13,34.66,30.31h-23.41c-1.13-6.15-5.1-9.08-11.25-9.08s-11.48,4.58-11.48,12.38,5.18,12.38,11.48,12.38,10.13-3,11.25-9.3h23.41c-1.43,23.33-18.08,30.53-34.66,30.53-21.75,0-36.01-13.2-36.01-33.61Z"/>
      <path class="cls-2" d="M381.28,547.47c0-20.48,14.25-33.61,36.01-33.61,16.43,0,33.23,7.13,34.66,30.31h-23.41c-1.13-6.15-5.1-9.08-11.25-9.08s-11.48,4.58-11.48,12.38,5.18,12.38,11.48,12.38,10.13-3,11.25-9.3h23.41c-1.43,23.33-18.08,30.53-34.66,30.53-21.75,0-36.01-13.2-36.01-33.61Z"/>
      <path class="cls-2" d="M455.32,515.96h59.26v19.58h-34.58v4.2h33.23v15.53h-33.23v4.13h34.58v19.58h-59.26v-63.01Z"/>
      <path class="cls-2" d="M563.79,578.98l-7.35-14.63h-12.68v14.63h-24.68v-63.01h38.11c17.85,0,28.28,7.2,28.28,25.06,0,8.18-3.45,14.03-8.18,17.78l10.65,20.18h-24.16ZM543.76,546.12h11.55c3.75,0,5.4-1.95,5.4-4.88s-1.65-4.88-5.4-4.88h-11.55v9.75Z"/>
    </g>
    <g>
      <path class="cls-2" d="M64.02,619.42c0-20.48,14.25-33.61,36.01-33.61,16.43,0,33.23,7.13,34.66,30.31h-23.41c-1.13-6.15-5.1-9.08-11.25-9.08s-11.48,4.58-11.48,12.38,5.18,12.38,11.48,12.38,10.13-3,11.25-9.3h23.41c-1.43,23.33-18.08,30.53-34.66,30.53-21.75,0-36.01-13.2-36.01-33.61Z"/>
      <path class="cls-2" d="M207.3,587.91v63.01h-24.68v-21.15h-19.88v21.15h-24.68v-63.01h24.68v21.15h19.88v-21.15h24.68Z"/>
      <path class="cls-2" d="M261.31,644.1h-24.23l-2.1,6.83h-25.43l22.36-63.01h34.51l22.36,63.01h-25.43l-2.03-6.83ZM255.84,626.02l-4.58-15.08h-4.13l-4.58,15.08h13.28Z"/>
      <path class="cls-2" d="M291.02,587.91h30.91l6.68,30.38h1.8l6.68-30.38h30.91v63.01h-23.48v-21.23h-1.87l-4.13,21.23h-18l-4.13-21.23h-1.88v21.23h-23.48v-63.01Z"/>
      <path class="cls-2" d="M372.48,587.91h37.66c17.48,0,28.36,7.35,28.36,25.58s-10.88,25.66-28.21,25.66h-13.13v11.78h-24.68v-63.01ZM407.81,618.74c3.45,0,5.78-1.8,5.78-5.25s-2.33-5.18-5.63-5.18h-10.8v10.43h10.65Z"/>
      <path class="cls-2" d="M442.24,587.91h24.68v63.01h-24.68v-63.01Z"/>
      <path class="cls-2" d="M470.3,619.42c0-20.48,14.03-33.61,36.46-33.61s36.38,13.13,36.38,33.61-14.03,33.61-36.38,33.61-36.46-13.2-36.46-33.61ZM518.68,619.42c0-8.4-5.7-12.38-11.93-12.38s-11.93,3.98-11.93,12.38,5.63,12.38,11.93,12.38,11.93-4.05,11.93-12.38Z"/>
      <path class="cls-2" d="M546.51,587.91h28.21l15.38,28.51h2.18v-28.51h24.01v63.01h-27.53l-15.98-28.51h-2.25v28.51h-24.01v-63.01Z"/>
      <path class="cls-2" d="M619.28,628.79h22.13c0,3.15,2.78,5.03,10.88,5.1,6.75.15,9.3-1.43,9.3-3,0-.45.52-2.55-4.73-3.15l-8.33-1.28c-11.93-1.8-27.91-2.1-27.91-19.8,0-12.83,10.2-20.85,31.81-20.85,19.2,0,32.56,4.5,31.88,24.08h-21.98c-.6-3.15-3.53-5.03-10.43-5.03-5.85,0-7.58,1.58-7.58,3.08,0,.45-.15,2.48,3.53,2.93l6.6,1.05c12.83,2.1,31.66,1.35,31.66,20.03,0,14.55-10.95,21.23-33.83,21.08-23.48-.07-33.83-6.83-33.01-24.23Z"/>
    </g>
    <g>
      <path class="cls-2" d="M300.24,680.33h-22.05v42.54h-24.6v-42.54h-22.05v-20.48h68.71v20.48Z"/>
      <path class="cls-2" d="M300.77,691.36c0-20.48,14.03-33.61,36.46-33.61s36.38,13.13,36.38,33.61-14.03,33.61-36.38,33.61-36.46-13.2-36.46-33.61ZM349.15,691.36c0-8.4-5.7-12.38-11.93-12.38s-11.93,3.98-11.93,12.38,5.63,12.38,11.93,12.38,11.93-4.05,11.93-12.38Z"/>
      <path class="cls-2" d="M376.98,694.58v-34.73h24.83v34.13c0,6.3,2.4,10.35,9.3,10.35s9.53-4.05,9.53-10.35v-34.13h24.61v34.51c0,21.3-10.95,30.61-34.13,30.61s-34.13-9.3-34.13-30.38Z"/>
      <path class="cls-2" d="M494.45,722.87l-7.35-14.63h-12.68v14.63h-24.68v-63.01h38.11c17.85,0,28.28,7.2,28.28,25.06,0,8.18-3.45,14.03-8.18,17.78l10.65,20.18h-24.16ZM474.42,690.01h11.55c3.75,0,5.4-1.95,5.4-4.88s-1.65-4.88-5.4-4.88h-11.55v9.75Z"/>
    </g>
    <rect class="cls-2" x="162.19" y="373.01" width="425.75" height="128.78"/>
    <g>
      <path class="cls-1" d="M428.13,450.1c-1.3,5.89-5.19,9.36-10.96,9.36-3.77,0-7.12-1.44-9.42-5.06-2.2-3.46-1.98-11.31-1.98-13.71h0s-.06-13.4.37-15.05c-5.14-.21-9.96-.36-13.13-.44-.46,2-.34,17.21-.34,17.21h0c.04,7.38.57,14.03,4.75,19.36,4.47,5.71,11.63,9.19,19.73,9.19,13.85,0,22.68-9.36,24.3-20.86h-13.31Z"/>
      <path class="cls-1" d="M407.71,420.61c.45-.77,2.86-5.28,9.5-5.28,4.94,0,8.4,2.56,10.13,6.88,4.62.53,9.37,1.2,14.04,2.04-1.72-11.26-10.19-20.42-24.15-20.42-5.14,0-9.96,1.35-13.25,3.42-5.62,3.55-8.59,7.76-10.04,12.92,3.22.03,8.03.14,13.77.44Z"/>
      <path class="cls-1" d="M239.41,410.67c-4.26-4.46-10.49-6.31-18.31-6.31h-22.98v49.56c4.16-1.64,8.46-3.23,12.9-4.78v-33.29h9.87c4.26,0,7.47,1.49,9.52,4.09,2.49,3.14,2.73,5.8,2.73,22.22,4.21-1.2,12.94-3.48,12.94-3.48,0-15.92,0-21.02-6.68-28.01Z"/>
      <path class="cls-1" d="M319.13,441.94c5.13-1.86,9.78-5.93,11.42-12.25-11.64,1.76-29.57,4.87-46.65,9.32v31.4h12.88v-26.34h9.28l12.88,26.34h14.93,0s0,0,0,0l-14.74-28.47Z"/>
      <path class="cls-1" d="M385.57,458.78h-30.5v-15.91h26.05v-.09h0v-11.47h-26.06v-4.53c-4.24.38-8.54.83-12.89,1.36v42.28h43.48v-11.51h-.09v-.13Z"/>
      <path class="cls-1" d="M221.97,470.41c6.86,0,13.07-1.96,17.44-6.33,3.87-3.86,5.51-8.34,6.21-13.14-15.72,5.86-29.82,12.44-42.03,19.46h18.39Z"/>
      <path class="cls-1" d="M258.01,470.41h12.88v-27.83c-4.39,1.28-8.69,2.62-12.88,4.01v23.82Z"/>
      <path class="cls-1" d="M258.01,435.81c4.21-.95,8.5-1.87,12.88-2.74v-28.68h-12.88v31.42Z"/>
      <path class="cls-1" d="M385.57,404.39h-43.38v18.24c4.31-.4,8.61-.75,12.89-1.05v-5.69h30.59v-11.49h-.09Z"/>
      <polygon class="cls-1" points="530.14 470.41 520.49 470.41 498.71 404.39 512.05 404.39 525.32 447.41 538.58 404.39 552.02 404.39 530.14 470.41"/>
      <polygon class="cls-1" points="475.11 415.88 475.11 470.41 462.23 470.41 462.23 415.88 444.98 415.88 444.98 404.39 492.36 404.39 492.36 415.88 475.11 415.88"/>
      <path class="cls-1" d="M296.78,415.88h12.14c5.51,0,9.37,3.2,9.37,9.4l12.86-1.54c-.4-10.64-8.29-19.35-21.38-19.35h-25.87v26.21c4.26-.76,8.55-1.5,12.88-2.19v-12.52Z"/>
    </g>
    <g>
      <path class="cls-2" d="M216.67,158.02c-.55,1.8,1.94,3,3.18,1.55,20.18-23.58,62.87-76.25,112.76-54.7,35.04,15.14,47.12,66.82,86.96,72.78,16.26,2.43,33.25-5.04,43.45-17.43,10.2-12.39,13.93-29.07,11.82-44.74-2.11-15.67-9.68-30.36-19.86-42.77-44.62-54.4-117.19-52.42-160.63-25.24-1.75,1.1-.81,3.89,1.25,3.53,22.32-3.97,48.07-13.96,89.56,8.25,48.53,25.98,54.04,55.67,45.27,66.33-18.25,22.16-41.4-22.86-74.24-40.92-42.1-23.16-114.57-8.04-139.52,73.36Z"/>
      <path class="cls-2" d="M435.55,324.13c1.9-.42,1.77-3.1-.15-3.43-31.28-5.34-100.01-15.28-104.9-67.6-3.43-36.75,37.56-72.19,23.44-108.47-5.76-14.8-20.86-25.37-37.11-27.84-16.25-2.47-33.2,2.58-46.39,12.02-13.19,9.44-22.81,22.98-29.09,37.58-27.51,64.02,9.85,123.8,55.8,146.86,1.85.93,3.93-1.23,2.59-2.77-14.54-16.74-36.23-33.41-36.4-79.03-.2-53.37,24.04-72.53,38.01-70.4,29.05,4.42-.46,45.87-.76,82.21-.39,46.6,48.84,99.86,134.95,80.87Z"/>
      <path class="cls-2" d="M472.76,59.03c-1.34-1.36-3.68.11-3,1.86,11.12,28.59,37.16,90.48-7.26,121.13-31.2,21.53-83.82,5.65-109.16,35.78-10.34,12.29-12.13,30.16-6.08,44.85,6.05,14.69,19.2,26.15,34.37,32.25,15.17,6.11,32.2,7.18,48.48,4.94,71.38-9.81,105.97-71.11,103.28-120.83-.11-2.01-3.1-2.62-3.8-.73-7.61,20.54-11.52,46.95-52.34,70.29-47.74,27.3-77.25,17-82.45,4.37-10.81-26.27,41.35-22.95,74.08-41.18,41.97-23.37,64.68-91.18,3.87-152.73Z"/>
    </g>
  </g>
  <g>
    <g>
      <path class="cls-2" d="M162.24,556.85h22.13c0,3.15,2.78,5.03,10.88,5.1,6.75.15,9.3-1.43,9.3-3,0-.45.52-2.55-4.73-3.15l-8.33-1.28c-11.93-1.8-27.91-2.1-27.91-19.8,0-12.83,10.2-20.85,31.81-20.85,19.2,0,32.56,4.5,31.88,24.08h-21.98c-.6-3.15-3.53-5.03-10.43-5.03-5.85,0-7.58,1.58-7.58,3.08,0,.45-.15,2.48,3.53,2.93l6.6,1.05c12.83,2.1,31.66,1.35,31.66,20.03,0,14.55-10.95,21.23-33.83,21.08-23.48-.07-33.83-6.83-33.01-24.23Z"/>
      <path class="cls-2" d="M231.18,547.47c0-20.48,14.03-33.61,36.46-33.61s36.38,13.13,36.38,33.61-14.03,33.61-36.38,33.61-36.46-13.2-36.46-33.61ZM279.56,547.47c0-8.4-5.7-12.38-11.93-12.38s-11.93,3.98-11.93,12.38,5.63,12.38,11.93,12.38,11.93-4.05,11.93-12.38Z"/>
      <path class="cls-2" d="M307.24,547.47c0-20.48,14.25-33.61,36.01-33.61,16.43,0,33.23,7.13,34.66,30.31h-23.41c-1.13-6.15-5.1-9.08-11.25-9.08s-11.48,4.58-11.48,12.38,5.18,12.38,11.48,12.38,10.13-3,11.25-9.3h23.41c-1.43,23.33-18.08,30.53-34.66,30.53-21.75,0-36.01-13.2-36.01-33.61Z"/>
      <path class="cls-2" d="M381.28,547.47c0-20.48,14.25-33.61,36.01-33.61,16.43,0,33.23,7.13,34.66,30.31h-23.41c-1.13-6.15-5.1-9.08-11.25-9.08s-11.48,4.58-11.48,12.38,5.18,12.38,11.48,12.38,10.13-3,11.25-9.3h23.41c-1.43,23.33-18.08,30.53-34.66,30.53-21.75,0-36.01-13.2-36.01-33.61Z"/>
      <path class="cls-2" d="M455.32,515.96h59.26v19.58h-34.58v4.2h33.23v15.53h-33.23v4.13h34.58v19.58h-59.26v-63.01Z"/>
      <path class="cls-2" d="M563.79,578.98l-7.35-14.63h-12.68v14.63h-24.68v-63.01h38.11c17.85,0,28.28,7.2,28.28,25.06,0,8.18-3.45,14.03-8.18,17.78l10.65,20.18h-24.16ZM543.76,546.12h11.55c3.75,0,5.4-1.95,5.4-4.88s-1.65-4.88-5.4-4.88h-11.55v9.75Z"/>
    </g>
    <g>
      <path class="cls-2" d="M64.02,619.42c0-20.48,14.25-33.61,36.01-33.61,16.43,0,33.23,7.13,34.66,30.31h-23.41c-1.13-6.15-5.1-9.08-11.25-9.08s-11.48,4.58-11.48,12.38,5.18,12.38,11.48,12.38,10.13-3,11.25-9.3h23.41c-1.43,23.33-18.08,30.53-34.66,30.53-21.75,0-36.01-13.2-36.01-33.61Z"/>
      <path class="cls-2" d="M207.3,587.91v63.01h-24.68v-21.15h-19.88v21.15h-24.68v-63.01h24.68v21.15h19.88v-21.15h24.68Z"/>
      <path class="cls-2" d="M261.31,644.1h-24.23l-2.1,6.83h-25.43l22.36-63.01h34.51l22.36,63.01h-25.43l-2.03-6.83ZM255.84,626.02l-4.58-15.08h-4.13l-4.58,15.08h13.28Z"/>
      <path class="cls-2" d="M291.02,587.91h30.91l6.68,30.38h1.8l6.68-30.38h30.91v63.01h-23.48v-21.23h-1.87l-4.13,21.23h-18l-4.13-21.23h-1.88v21.23h-23.48v-63.01Z"/>
      <path class="cls-2" d="M372.48,587.91h37.66c17.48,0,28.36,7.35,28.36,25.58s-10.88,25.66-28.21,25.66h-13.13v11.78h-24.68v-63.01ZM407.81,618.74c3.45,0,5.78-1.8,5.78-5.25s-2.33-5.18-5.63-5.18h-10.8v10.43h10.65Z"/>
      <path class="cls-2" d="M442.24,587.91h24.68v63.01h-24.68v-63.01Z"/>
      <path class="cls-2" d="M470.3,619.42c0-20.48,14.03-33.61,36.46-33.61s36.38,13.13,36.38,33.61-14.03,33.61-36.38,33.61-36.46-13.2-36.46-33.61ZM518.68,619.42c0-8.4-5.7-12.38-11.93-12.38s-11.93,3.98-11.93,12.38,5.63,12.38,11.93,12.38,11.93-4.05,11.93-12.38Z"/>
      <path class="cls-2" d="M546.51,587.91h28.21l15.38,28.51h2.18v-28.51h24.01v63.01h-27.53l-15.98-28.51h-2.25v28.51h-24.01v-63.01Z"/>
      <path class="cls-2" d="M619.28,628.79h22.13c0,3.15,2.78,5.03,10.88,5.1,6.75.15,9.3-1.43,9.3-3,0-.45.52-2.55-4.73-3.15l-8.33-1.28c-11.93-1.8-27.91-2.1-27.91-19.8,0-12.83,10.2-20.85,31.81-20.85,19.2,0,32.56,4.5,31.88,24.08h-21.98c-.6-3.15-3.53-5.03-10.43-5.03-5.85,0-7.58,1.58-7.58,3.08,0,.45-.15,2.48,3.53,2.93l6.6,1.05c12.83,2.1,31.66,1.35,31.66,20.03,0,14.55-10.95,21.23-33.83,21.08-23.48-.07-33.83-6.83-33.01-24.23Z"/>
    </g>
    <g>
      <path class="cls-2" d="M300.24,680.33h-22.05v42.54h-24.6v-42.54h-22.05v-20.48h68.71v20.48Z"/>
      <path class="cls-2" d="M300.77,691.36c0-20.48,14.03-33.61,36.46-33.61s36.38,13.13,36.38,33.61-14.03,33.61-36.38,33.61-36.46-13.2-36.46-33.61ZM349.15,691.36c0-8.4-5.7-12.38-11.93-12.38s-11.93,3.98-11.93,12.38,5.63,12.38,11.93,12.38,11.93-4.05,11.93-12.38Z"/>
      <path class="cls-2" d="M376.98,694.58v-34.73h24.83v34.13c0,6.3,2.4,10.35,9.3,10.35s9.53-4.05,9.53-10.35v-34.13h24.61v34.51c0,21.3-10.95,30.61-34.13,30.61s-34.13-9.3-34.13-30.38Z"/>
      <path class="cls-2" d="M494.45,722.87l-7.35-14.63h-12.68v14.63h-24.68v-63.01h38.11c17.85,0,28.28,7.2,28.28,25.06,0,8.18-3.45,14.03-8.18,17.78l10.65,20.18h-24.16ZM474.42,690.01h11.55c3.75,0,5.4-1.95,5.4-4.88s-1.65-4.88-5.4-4.88h-11.55v9.75Z"/>
    </g>
    <rect class="cls-2" x="162.19" y="373.01" width="425.75" height="128.78"/>
    <g>
      <path class="cls-1" d="M428.13,450.1c-1.3,5.89-5.19,9.36-10.96,9.36-3.77,0-7.12-1.44-9.42-5.06-2.2-3.46-1.98-11.31-1.98-13.71h0s-.06-13.4.37-15.05c-5.14-.21-9.96-.36-13.13-.44-.46,2-.34,17.21-.34,17.21h0c.04,7.38.57,14.03,4.75,19.36,4.47,5.71,11.63,9.19,19.73,9.19,13.85,0,22.68-9.36,24.3-20.86h-13.31Z"/>
      <path class="cls-1" d="M407.71,420.61c.45-.77,2.86-5.28,9.5-5.28,4.94,0,8.4,2.56,10.13,6.88,4.62.53,9.37,1.2,14.04,2.04-1.72-11.26-10.19-20.42-24.15-20.42-5.14,0-9.96,1.35-13.25,3.42-5.62,3.55-8.59,7.76-10.04,12.92,3.22.03,8.03.14,13.77.44Z"/>
      <path class="cls-1" d="M239.41,410.67c-4.26-4.46-10.49-6.31-18.31-6.31h-22.98v49.56c4.16-1.64,8.46-3.23,12.9-4.78v-33.29h9.87c4.26,0,7.47,1.49,9.52,4.09,2.49,3.14,2.73,5.8,2.73,22.22,4.21-1.2,12.94-3.48,12.94-3.48,0-15.92,0-21.02-6.68-28.01Z"/>
      <path class="cls-1" d="M319.13,441.94c5.13-1.86,9.78-5.93,11.42-12.25-11.64,1.76-29.57,4.87-46.65,9.32v31.4h12.88v-26.34h9.28l12.88,26.34h14.93,0s0,0,0,0l-14.74-28.47Z"/>
      <path class="cls-1" d="M385.57,458.78h-30.5v-15.91h26.05v-.09h0v-11.47h-26.06v-4.53c-4.24.38-8.54.83-12.89,1.36v42.28h43.48v-11.51h-.09v-.13Z"/>
      <path class="cls-1" d="M221.97,470.41c6.86,0,13.07-1.96,17.44-6.33,3.87-3.86,5.51-8.34,6.21-13.14-15.72,5.86-29.82,12.44-42.03,19.46h18.39Z"/>
      <path class="cls-1" d="M258.01,470.41h12.88v-27.83c-4.39,1.28-8.69,2.62-12.88,4.01v23.82Z"/>
      <path class="cls-1" d="M258.01,435.81c4.21-.95,8.5-1.87,12.88-2.74v-28.68h-12.88v31.42Z"/>
      <path class="cls-1" d="M385.57,404.39h-43.38v18.24c4.31-.4,8.61-.75,12.89-1.05v-5.69h30.59v-11.49h-.09Z"/>
      <polygon class="cls-1" points="530.14 470.41 520.49 470.41 498.71 404.39 512.05 404.39 525.32 447.41 538.58 404.39 552.02 404.39 530.14 470.41"/>
      <polygon class="cls-1" points="475.11 415.88 475.11 470.41 462.23 470.41 462.23 415.88 444.98 415.88 444.98 404.39 492.36 404.39 492.36 415.88 475.11 415.88"/>
      <path class="cls-1" d="M296.78,415.88h12.14c5.51,0,9.37,3.2,9.37,9.4l12.86-1.54c-.4-10.64-8.29-19.35-21.38-19.35h-25.87v26.21c4.26-.76,8.55-1.5,12.88-2.19v-12.52Z"/>
    </g>
    <g>
      <path class="cls-2" d="M216.67,158.02c-.55,1.8,1.94,3,3.18,1.55,20.18-23.58,62.87-76.25,112.76-54.7,35.04,15.14,47.12,66.82,86.96,72.78,16.26,2.43,33.25-5.04,43.45-17.43,10.2-12.39,13.93-29.07,11.82-44.74-2.11-15.67-9.68-30.36-19.86-42.77-44.62-54.4-117.19-52.42-160.63-25.24-1.75,1.1-.81,3.89,1.25,3.53,22.32-3.97,48.07-13.96,89.56,8.25,48.53,25.98,54.04,55.67,45.27,66.33-18.25,22.16-41.4-22.86-74.24-40.92-42.1-23.16-114.57-8.04-139.52,73.36Z"/>
      <path class="cls-2" d="M435.55,324.13c1.9-.42,1.77-3.1-.15-3.43-31.28-5.34-100.01-15.28-104.9-67.6-3.43-36.75,37.56-72.19,23.44-108.47-5.76-14.8-20.86-25.37-37.11-27.84-16.25-2.47-33.2,2.58-46.39,12.02-13.19,9.44-22.81,22.98-29.09,37.58-27.51,64.02,9.85,123.8,55.8,146.86,1.85.93,3.93-1.23,2.59-2.77-14.54-16.74-36.23-33.41-36.4-79.03-.2-53.37,24.04-72.53,38.01-70.4,29.05,4.42-.46,45.87-.76,82.21-.39,46.6,48.84,99.86,134.95,80.87Z"/>
      <path class="cls-2" d="M472.76,59.03c-1.34-1.36-3.68.11-3,1.86,11.12,28.59,37.16,90.48-7.26,121.13-31.2,21.53-83.82,5.65-109.16,35.78-10.34,12.29-12.13,30.16-6.08,44.85,6.05,14.69,19.2,26.15,34.37,32.25,15.17,6.11,32.2,7.18,48.48,4.94,71.38-9.81,105.97-71.11,103.28-120.83-.11-2.01-3.1-2.62-3.8-.73-7.61,20.54-11.52,46.95-52.34,70.29-47.74,27.3-77.25,17-82.45,4.37-10.81-26.27,41.35-22.95,74.08-41.18,41.97-23.37,64.68-91.18,3.87-152.73Z"/>
    </g>
  </g>
</svg>